<svg id="_1" data-name="1" xmlns="http://www.w3.org/2000/svg" viewBox="0 0 595.28 595.28"><defs><style>.cls-1,.cls-2{fill:rgba(19,10,51,.05);}.cls-1{fill-rule:evenodd;}</style></defs><title>Artboard 1</title><path class="cls-1" d="M0-11.46A11.39,11.39,0,0,1,8.1-8.1,11.39,11.39,0,0,1,11.46,0,11.39,11.39,0,0,1,8.1,8.1,11.39,11.39,0,0,1,0,11.46,11.39,11.39,0,0,1-8.1,8.1,11.39,11.39,0,0,1-11.46,0,11.39,11.39,0,0,1-8.1-8.1,11.39,11.39,0,0,1,0-11.46ZM5.39-5.39A7.65,7.65,0,0,0,0-7.62,7.65,7.65,0,0,0-5.39-5.39,7.65,7.65,0,0,0-7.62,0,7.65,7.65,0,0,0-5.39,5.39,7.65,7.65,0,0,0,0,7.62,7.65,7.65,0,0,0,5.39,5.39,7.65,7.65,0,0,0,7.62,0,7.65,7.65,0,0,0,5.39-5.39Z"/><path class="cls-1" d="M0,286.18a11.43,11.43,0,0,1,8.1,3.35,11.42,11.42,0,0,1,3.36,8.11,11.39,11.39,0,0,1-3.36,8.1A11.39,11.39,0,0,1,0,309.1a11.39,11.39,0,0,1-8.1-3.36,11.39,11.39,0,0,1-3.36-8.1,11.42,11.42,0,0,1,3.36-8.11A11.43,11.43,0,0,1,0,286.18Zm5.39,6.07A7.6,7.6,0,0,0,0,290a7.6,7.6,0,0,0-5.39,2.23,7.63,7.63,0,0,0-2.23,5.39A7.6,7.6,0,0,0-5.39,303,7.6,7.6,0,0,0,0,305.25,7.6,7.6,0,0,0,5.39,303a7.6,7.6,0,0,0,2.23-5.38A7.63,7.63,0,0,0,5.39,292.25Z"/><path class="cls-1" d="M297.64-11.46a11.39,11.39,0,0,1,8.1,3.36A11.39,11.39,0,0,1,309.1,0a11.39,11.39,0,0,1-3.36,8.1,11.39,11.39,0,0,1-8.1,3.36,11.42,11.42,0,0,1-8.11-3.36A11.43,11.43,0,0,1,286.18,0a11.43,11.43,0,0,1,3.35-8.1,11.42,11.42,0,0,1,8.11-3.36ZM303-5.39a7.6,7.6,0,0,0-5.38-2.23,7.63,7.63,0,0,0-5.39,2.23A7.6,7.6,0,0,0,290,0a7.6,7.6,0,0,0,2.23,5.39,7.63,7.63,0,0,0,5.39,2.23A7.6,7.6,0,0,0,303,5.39,7.6,7.6,0,0,0,305.25,0,7.6,7.6,0,0,0,303-5.39Z"/><path class="cls-1" d="M297.64,286.18a11.44,11.44,0,1,1-8.11,3.35,11.43,11.43,0,0,1,8.11-3.35Zm5.38,6.07a7.62,7.62,0,1,0,2.23,5.39A7.56,7.56,0,0,0,303,292.25Z"/><path class="cls-1" d="M148.82,236.57a11.47,11.47,0,1,1-8.1,3.36,11.39,11.39,0,0,1,8.1-3.36Zm5.38,6.08a7.62,7.62,0,0,0-13,5.38,7.61,7.61,0,0,0,7.62,7.62,7.61,7.61,0,0,0,5.38-13Z"/><path class="cls-1" d="M39.71,37.79H61.42V61.42H37.79V37.79Zm17.87,3.85H41.64V57.58H57.58Z"/><path class="cls-1" d="M238.14,236.22h21.71v23.63H236.22V236.22ZM256,240.06H240.06V256H256Z"/><path class="cls-1" d="M83.86,197.07l15.35-15.35,16.71,16.71-16.71,16.7L82.5,198.43l1.36-1.36Zm15.35-9.92L87.94,198.43,99.21,209.7l11.27-11.27Z"/><path class="cls-1" d="M150.48,38.21l6.58,11.39h0l8.23,14.27H132.34l8.24-14.27h0l8.24-14.27,1.66,2.88Zm3.26,13.31h0L148.82,43l-4.92,8.52h0L139,60h19.67Z"/><path class="cls-1" d="M299.3,87.81l6.58,11.4h0l8.23,14.26H281.16l8.24-14.26h0l8.24-14.27,1.66,2.87Zm3.26,13.32h0l-4.92-8.52-4.92,8.52h0l-4.92,8.51h19.67Z"/><path class="cls-1" d="M1.43,87.81,8,99.21H8l8.24,14.26h-33l8.24-14.26h0L-.23,84.94l1.66,2.87Zm3.26,13.32h0L-.23,92.61l-4.92,8.52h0l-4.92,8.51H9.61Z"/><path class="cls-1" d="M195.17,187l6.57,11.39h0L210,212.7H177l8.24-14.27h0l8.24-14.27,1.66,2.88Zm3.26,13.31h0l-4.92-8.52-4.92,8.52h0l-4.92,8.51h19.67Z"/><path class="cls-1" d="M38.22,134l11.39,6.59h0l14.27,8.25L35.33,165.3V148.82h0V132.34L38.22,134Zm9.48,9.9h0L39.18,139v9.83h0v9.83l17.05-9.83Z"/><path class="cls-1" d="M101.13,99.21A14.29,14.29,0,0,1,86.85,113.5v-3.85A10.43,10.43,0,0,0,97.29,99.21a14.27,14.27,0,0,1,14.29-14.28v3.84a10.45,10.45,0,0,0-10.45,10.44Z"/><path class="cls-1" d="M196.5,297.64a14.29,14.29,0,0,0,14.29,14.28v-3.84a10.45,10.45,0,0,1-10.44-10.44,14.31,14.31,0,0,0-14.29-14.29v3.85a10.43,10.43,0,0,1,10.44,10.44Z"/><path class="cls-1" d="M196.5,0a14.22,14.22,0,0,0,4.19,10.1,14.22,14.22,0,0,0,10.1,4.19V10.44a10.41,10.41,0,0,1-7.38-3.06A10.41,10.41,0,0,1,200.35,0a14.2,14.2,0,0,0-4.19-10.1,14.2,14.2,0,0,0-10.1-4.19v3.85a10.39,10.39,0,0,1,7.38,3.06A10.41,10.41,0,0,1,196.5,0Z"/><path class="cls-1" d="M249.33,150.24a14.28,14.28,0,0,1-20.19-.91l2.84-2.59a10.43,10.43,0,0,0,14.75.66,14.28,14.28,0,0,1,20.19.91l-2.84,2.59a10.43,10.43,0,0,0-14.75-.66Z"/><rect class="cls-2" x="234.04" y="47.68" width="27.98" height="3.84" transform="translate(37.57 189.91) rotate(-45)"/><rect class="cls-2" x="295.72" y="184.44" width="3.84" height="27.98" transform="translate(-53.13 268.58) rotate(-45)"/><rect class="cls-2" x="-1.92" y="184.44" width="3.84" height="27.98" transform="translate(-140.31 58.12) rotate(-45)"/><rect class="cls-2" x="146.9" y="134.83" width="3.84" height="27.98"/><polygon class="cls-1" points="189.89 87.96 198.43 96.49 206.96 87.96 209.68 90.68 201.14 99.21 209.68 107.75 206.96 110.46 198.43 101.93 189.89 110.46 187.17 107.75 195.71 99.21 187.17 90.68 189.89 87.96"/><polygon class="cls-1" points="90.68 286.39 99.21 294.92 107.75 286.39 110.46 289.11 101.93 297.64 110.46 306.17 107.75 308.89 99.21 300.36 90.68 308.89 87.96 306.17 96.49 297.64 87.96 289.11 90.68 286.39"/><polygon class="cls-1" points="90.68 -11.25 99.21 -2.72 107.75 -11.25 110.46 -8.53 101.93 0 110.46 8.53 107.75 11.25 99.21 2.72 90.68 11.25 87.96 8.53 96.49 0 87.96 -8.53 90.68 -11.25"/><polygon class="cls-1" points="35.62 246.11 47.68 246.11 47.68 234.04 51.53 234.04 51.53 246.11 63.59 246.11 63.59 249.95 51.53 249.95 51.53 262.02 47.68 262.02 47.68 249.95 35.62 249.95 35.62 246.11"/><path class="cls-1" d="M0,286.18a11.43,11.43,0,0,1,8.1,3.35,11.42,11.42,0,0,1,3.36,8.11,11.39,11.39,0,0,1-3.36,8.1A11.39,11.39,0,0,1,0,309.1a11.39,11.39,0,0,1-8.1-3.36,11.39,11.39,0,0,1-3.36-8.1,11.42,11.42,0,0,1,3.36-8.11A11.43,11.43,0,0,1,0,286.18Zm5.39,6.07A7.6,7.6,0,0,0,0,290a7.6,7.6,0,0,0-5.39,2.23,7.63,7.63,0,0,0-2.23,5.39A7.6,7.6,0,0,0-5.39,303,7.6,7.6,0,0,0,0,305.25,7.6,7.6,0,0,0,5.39,303a7.6,7.6,0,0,0,2.23-5.38A7.63,7.63,0,0,0,5.39,292.25Z"/><path class="cls-1" d="M0,583.82a11.43,11.43,0,0,1,8.1,3.35,11.42,11.42,0,0,1,3.36,8.11,11.39,11.39,0,0,1-3.36,8.1A11.44,11.44,0,0,1,0,606.74a11.44,11.44,0,0,1-8.1-3.36,11.39,11.39,0,0,1-3.36-8.1,11.42,11.42,0,0,1,3.36-8.11A11.43,11.43,0,0,1,0,583.82Zm5.39,6.07A7.6,7.6,0,0,0,0,587.66a7.6,7.6,0,0,0-5.39,2.23,7.63,7.63,0,0,0-2.23,5.39,7.62,7.62,0,0,0,2.23,5.38A7.6,7.6,0,0,0,0,602.89a7.6,7.6,0,0,0,5.39-2.23,7.62,7.62,0,0,0,2.23-5.38A7.63,7.63,0,0,0,5.39,589.89Z"/><path class="cls-1" d="M297.64,286.18a11.44,11.44,0,1,1-8.11,3.35,11.43,11.43,0,0,1,8.11-3.35Zm5.38,6.07a7.62,7.62,0,1,0,2.23,5.39A7.56,7.56,0,0,0,303,292.25Z"/><path class="cls-1" d="M297.64,583.82a11.44,11.44,0,1,1-8.11,3.35,11.43,11.43,0,0,1,8.11-3.35Zm5.38,6.07a7.62,7.62,0,1,0,2.23,5.39A7.56,7.56,0,0,0,303,589.89Z"/><path class="cls-1" d="M148.82,534.21a11.47,11.47,0,1,1-8.1,3.36,11.39,11.39,0,0,1,8.1-3.36Zm5.38,6.07a7.6,7.6,0,1,0,2.24,5.39A7.6,7.6,0,0,0,154.2,540.28Z"/><path class="cls-1" d="M39.71,335.43H61.42v23.63H37.79V335.43Zm17.87,3.84H41.64v15.94H57.58Z"/><path class="cls-1" d="M238.14,533.86h21.71v23.62H236.22V533.86ZM256,537.7H240.06v15.94H256Z"/><path class="cls-1" d="M83.86,494.7l15.35-15.34,16.71,16.7L99.21,512.77,82.5,496.06l1.36-1.36Zm15.35-9.91L87.94,496.06l11.27,11.27,11.27-11.27Z"/><path class="cls-1" d="M150.48,335.85l6.58,11.39h0l8.23,14.27H132.34l8.24-14.27h0L148.82,333l1.66,2.88Zm3.26,13.31h0l-4.92-8.52-4.92,8.52h0L139,357.67h19.67Z"/><path class="cls-1" d="M299.3,385.45l6.58,11.4h0l8.23,14.27H281.16l8.24-14.27h0l8.24-14.27,1.66,2.87Zm3.26,13.32h0l-4.92-8.52-4.92,8.52h0l-4.92,8.51h19.67Z"/><path class="cls-1" d="M1.43,385.45,8,396.85H8l8.24,14.27h-33l8.24-14.27h0l8.24-14.27,1.66,2.87Zm3.26,13.32h0l-4.92-8.52-4.92,8.52h0l-4.92,8.51H9.61Z"/><path class="cls-1" d="M195.17,484.67l6.57,11.39h0L210,510.33H177l8.24-14.26h0l8.24-14.27,1.66,2.88ZM198.43,498h0l-4.92-8.52L188.59,498h0l-4.92,8.51h19.67Z"/><path class="cls-1" d="M38.22,431.64l11.39,6.58h0l14.27,8.25L35.33,462.94V446.46h0V430l2.87,1.66Zm9.48,9.9h0l-8.52-4.93v9.84h0v9.83l17.05-9.83Z"/><path class="cls-1" d="M101.13,396.85a14.29,14.29,0,0,1-14.28,14.29v-3.85a10.45,10.45,0,0,0,10.44-10.44,14.29,14.29,0,0,1,14.29-14.29v3.85a10.45,10.45,0,0,0-10.45,10.44Z"/><path class="cls-1" d="M196.5,595.28a14.29,14.29,0,0,0,14.29,14.28v-3.84a10.45,10.45,0,0,1-10.44-10.44A14.29,14.29,0,0,0,186.06,581v3.84a10.45,10.45,0,0,1,10.44,10.45Z"/><path class="cls-1" d="M196.5,297.64a14.29,14.29,0,0,0,14.29,14.28v-3.84a10.45,10.45,0,0,1-10.44-10.44,14.31,14.31,0,0,0-14.29-14.29v3.85a10.43,10.43,0,0,1,10.44,10.44Z"/><path class="cls-1" d="M249.33,447.88a14.31,14.31,0,0,1-20.19-.91l2.84-2.59a10.45,10.45,0,0,0,14.75.66,14.29,14.29,0,0,1,20.19.9l-2.84,2.6a10.43,10.43,0,0,0-14.75-.66Z"/><rect class="cls-2" x="234.04" y="345.32" width="27.98" height="3.84" transform="translate(-172.89 277.09) rotate(-45)"/><rect class="cls-2" x="295.72" y="482.07" width="3.84" height="27.98" transform="translate(-263.59 355.75) rotate(-45)"/><rect class="cls-2" x="-1.92" y="482.07" width="3.84" height="27.98" transform="translate(-350.77 145.29) rotate(-45)"/><rect class="cls-2" x="146.9" y="432.47" width="3.84" height="27.98"/><polygon class="cls-1" points="189.89 385.6 198.43 394.13 206.96 385.6 209.68 388.32 201.14 396.85 209.68 405.38 206.96 408.1 198.43 399.57 189.89 408.1 187.17 405.38 195.71 396.85 187.17 388.32 189.89 385.6"/><polygon class="cls-1" points="90.68 584.02 99.21 592.56 107.75 584.02 110.46 586.74 101.93 595.28 110.46 603.81 107.75 606.53 99.21 597.99 90.68 606.53 87.96 603.81 96.49 595.28 87.96 586.74 90.68 584.02"/><polygon class="cls-1" points="90.68 286.39 99.21 294.92 107.75 286.39 110.46 289.11 101.93 297.64 110.46 306.17 107.75 308.89 99.21 300.36 90.68 308.89 87.96 306.17 96.49 297.64 87.96 289.11 90.68 286.39"/><polygon class="cls-1" points="35.62 543.75 47.68 543.75 47.68 531.68 51.53 531.68 51.53 543.75 63.59 543.75 63.59 547.59 51.53 547.59 51.53 559.66 47.68 559.66 47.68 547.59 35.62 547.59 35.62 543.75"/><path class="cls-1" d="M297.64-11.46a11.39,11.39,0,0,1,8.1,3.36A11.39,11.39,0,0,1,309.1,0a11.39,11.39,0,0,1-3.36,8.1,11.39,11.39,0,0,1-8.1,3.36,11.42,11.42,0,0,1-8.11-3.36A11.43,11.43,0,0,1,286.18,0a11.43,11.43,0,0,1,3.35-8.1,11.42,11.42,0,0,1,8.11-3.36ZM303-5.39a7.6,7.6,0,0,0-5.38-2.23,7.63,7.63,0,0,0-5.39,2.23A7.6,7.6,0,0,0,290,0a7.6,7.6,0,0,0,2.23,5.39,7.63,7.63,0,0,0,5.39,2.23A7.6,7.6,0,0,0,303,5.39,7.6,7.6,0,0,0,305.25,0,7.6,7.6,0,0,0,303-5.39Z"/><path class="cls-1" d="M297.64,286.18a11.44,11.44,0,1,1-8.11,3.35,11.43,11.43,0,0,1,8.11-3.35Zm5.38,6.07a7.62,7.62,0,1,0,2.23,5.39A7.56,7.56,0,0,0,303,292.25Z"/><path class="cls-1" d="M595.28-11.46a11.39,11.39,0,0,1,8.1,3.36A11.44,11.44,0,0,1,606.74,0a11.44,11.44,0,0,1-3.36,8.1,11.39,11.39,0,0,1-8.1,3.36,11.42,11.42,0,0,1-8.11-3.36A11.43,11.43,0,0,1,583.82,0a11.43,11.43,0,0,1,3.35-8.1,11.42,11.42,0,0,1,8.11-3.36Zm5.38,6.07a7.62,7.62,0,0,0-5.38-2.23,7.63,7.63,0,0,0-5.39,2.23A7.6,7.6,0,0,0,587.66,0a7.6,7.6,0,0,0,2.23,5.39,7.63,7.63,0,0,0,5.39,2.23,7.62,7.62,0,0,0,5.38-2.23A7.6,7.6,0,0,0,602.89,0,7.6,7.6,0,0,0,600.66-5.39Z"/><path class="cls-1" d="M595.28,286.18a11.44,11.44,0,1,1-8.11,3.35,11.43,11.43,0,0,1,8.11-3.35Zm5.38,6.07a7.62,7.62,0,1,0,2.23,5.39A7.58,7.58,0,0,0,600.66,292.25Z"/><path class="cls-1" d="M446.46,236.57a11.45,11.45,0,1,1-8.11,3.36,11.39,11.39,0,0,1,8.11-3.36Zm5.38,6.08a7.62,7.62,0,1,0,2.23,5.38A7.58,7.58,0,0,0,451.84,242.65Z"/><path class="cls-1" d="M337.35,37.79h21.71V61.42H335.43V37.79Zm17.86,3.85H339.27V57.58h15.94Z"/><path class="cls-1" d="M535.78,236.22h21.7v23.63H533.86V236.22Zm17.86,3.84H537.7V256h15.94Z"/><path class="cls-1" d="M381.5,197.07l15.35-15.35,16.71,16.71-16.71,16.7-16.71-16.7,1.36-1.36Zm15.35-9.92-11.27,11.28,11.27,11.27,11.27-11.27Z"/><path class="cls-1" d="M448.12,38.21l6.57,11.39h0l8.24,14.27H430l8.24-14.27h0l8.24-14.27,1.66,2.88Zm3.26,13.31h0L446.46,43l-4.92,8.52h0L436.62,60h19.67Z"/><path class="cls-1" d="M596.94,87.81l6.57,11.4h0l8.24,14.26h-33L587,99.22h0l8.24-14.27,1.66,2.87Zm3.26,13.32h0l-4.91-8.52-4.92,8.52h0l-4.91,8.51h19.67Z"/><path class="cls-1" d="M299.07,87.81l6.58,11.4h0l8.23,14.26H280.93l8.24-14.26h0l8.24-14.27,1.66,2.87Zm3.26,13.32h0l-4.92-8.52-4.92,8.52h0l-4.92,8.51h19.67Z"/><path class="cls-1" d="M492.8,187l6.58,11.39h0l8.24,14.27H474.67l8.24-14.27h0l8.23-14.27L492.8,187Zm3.27,13.31h0l-4.92-8.52-4.91,8.52h0l-4.91,8.51H501Z"/><path class="cls-1" d="M335.86,134l11.39,6.59h0l14.27,8.25L333,165.3V148.82h0V132.34l2.87,1.66Zm9.48,9.9h0L336.82,139v9.83h0v9.83l17-9.83Z"/><path class="cls-1" d="M398.77,99.21a14.29,14.29,0,0,1-14.28,14.29v-3.85a10.43,10.43,0,0,0,10.44-10.44,14.27,14.27,0,0,1,14.28-14.28v3.84a10.45,10.45,0,0,0-10.44,10.44Z"/><path class="cls-1" d="M494.14,297.64a14.29,14.29,0,0,0,14.29,14.28v-3.84A10.43,10.43,0,0,1,498,297.64a14.31,14.31,0,0,0-14.29-14.29v3.85a10.43,10.43,0,0,1,10.44,10.44Z"/><path class="cls-1" d="M494.14,0a14.22,14.22,0,0,0,4.19,10.1,14.2,14.2,0,0,0,10.1,4.19V10.44A10.41,10.41,0,0,1,501,7.38,10.4,10.4,0,0,1,498,0a14.2,14.2,0,0,0-4.19-10.1,14.22,14.22,0,0,0-10.1-4.19v3.85a10.41,10.41,0,0,1,7.38,3.06A10.41,10.41,0,0,1,494.14,0Z"/><path class="cls-1" d="M547,150.24a14.28,14.28,0,0,1-20.19-.91l2.84-2.59a10.43,10.43,0,0,0,14.75.66,14.28,14.28,0,0,1,20.19.91l-2.84,2.59a10.43,10.43,0,0,0-14.75-.66Z"/><rect class="cls-2" x="531.68" y="47.68" width="27.98" height="3.84" transform="translate(124.75 400.38) rotate(-45)"/><rect class="cls-2" x="593.35" y="184.44" width="3.84" height="27.98" transform="translate(34.04 479.04) rotate(-45)"/><rect class="cls-2" x="295.72" y="184.44" width="3.84" height="27.98" transform="translate(-53.13 268.58) rotate(-45)"/><rect class="cls-2" x="444.53" y="134.83" width="3.84" height="27.98"/><polygon class="cls-1" points="487.53 87.96 496.06 96.49 504.6 87.96 507.31 90.68 498.78 99.21 507.31 107.75 504.6 110.46 496.06 101.93 487.53 110.46 484.81 107.75 493.35 99.21 484.81 90.68 487.53 87.96"/><polygon class="cls-1" points="388.32 286.39 396.85 294.92 405.38 286.39 408.1 289.11 399.57 297.64 408.1 306.17 405.38 308.89 396.85 300.36 388.32 308.89 385.6 306.17 394.13 297.64 385.6 289.11 388.32 286.39"/><polygon class="cls-1" points="388.32 -11.25 396.85 -2.72 405.38 -11.25 408.1 -8.53 399.57 0 408.1 8.53 405.38 11.25 396.85 2.72 388.32 11.25 385.6 8.53 394.13 0 385.6 -8.53 388.32 -11.25"/><polygon class="cls-1" points="333.25 246.11 345.32 246.11 345.32 234.04 349.17 234.04 349.17 246.11 361.23 246.11 361.23 249.95 349.17 249.95 349.17 262.02 345.32 262.02 345.32 249.95 333.25 249.95 333.25 246.11"/><path class="cls-1" d="M297.64,286.18a11.44,11.44,0,1,1-8.11,3.35,11.43,11.43,0,0,1,8.11-3.35Zm5.38,6.07a7.62,7.62,0,1,0,2.23,5.39A7.56,7.56,0,0,0,303,292.25Z"/><path class="cls-1" d="M297.64,583.82a11.44,11.44,0,1,1-8.11,3.35,11.43,11.43,0,0,1,8.11-3.35Zm5.38,6.07a7.62,7.62,0,1,0,2.23,5.39A7.56,7.56,0,0,0,303,589.89Z"/><path class="cls-1" d="M595.28,286.18a11.44,11.44,0,1,1-8.11,3.35,11.43,11.43,0,0,1,8.11-3.35Zm5.38,6.07a7.62,7.62,0,1,0,2.23,5.39A7.58,7.58,0,0,0,600.66,292.25Z"/><path class="cls-1" d="M595.28,583.82a11.44,11.44,0,1,1-8.11,3.35,11.43,11.43,0,0,1,8.11-3.35Zm5.38,6.07a7.62,7.62,0,1,0,2.23,5.39A7.58,7.58,0,0,0,600.66,589.89Z"/><path class="cls-1" d="M446.46,534.21a11.45,11.45,0,1,1-8.11,3.36,11.39,11.39,0,0,1,8.11-3.36Zm5.38,6.07a7.63,7.63,0,1,0,2.23,5.39A7.62,7.62,0,0,0,451.84,540.28Z"/><path class="cls-1" d="M337.35,335.43h21.71v23.63H335.43V335.43Zm17.86,3.84H339.27v15.94h15.94Z"/><path class="cls-1" d="M535.78,533.86h21.7v23.62H533.86V533.86Zm17.86,3.84H537.7v15.94h15.94Z"/><path class="cls-1" d="M381.5,494.7l15.35-15.34,16.71,16.7-16.71,16.71-16.71-16.71,1.36-1.36Zm15.35-9.91-11.27,11.27,11.27,11.27,11.27-11.27Z"/><path class="cls-1" d="M448.12,335.85l6.57,11.39h0l8.24,14.27H430l8.24-14.27h0L446.46,333l1.66,2.88Zm3.26,13.31h0l-4.92-8.52-4.92,8.52h0l-4.91,8.51h19.67Z"/><path class="cls-1" d="M596.94,385.45l6.57,11.4h0l8.24,14.27h-33L587,396.85h0l8.24-14.27,1.66,2.87Zm3.26,13.32h0l-4.91-8.52-4.92,8.52h0l-4.91,8.51h19.67Z"/><path class="cls-1" d="M299.07,385.45l6.58,11.4h0l8.23,14.27H280.93l8.24-14.27h0l8.24-14.27,1.66,2.87Zm3.26,13.32h0l-4.92-8.52-4.92,8.52h0l-4.92,8.51h19.67Z"/><path class="cls-1" d="M492.8,484.67l6.58,11.39h0l8.24,14.26H474.67l8.24-14.26h0l8.23-14.27,1.66,2.88ZM496.07,498h0l-4.92-8.52L486.23,498h0l-4.91,8.51H501Z"/><path class="cls-1" d="M335.86,431.64l11.39,6.58h0l14.27,8.25L333,462.94V446.46h0V430l2.87,1.66Zm9.48,9.9h0l-8.51-4.93v9.84h0v9.83l17-9.83Z"/><path class="cls-1" d="M398.77,396.85a14.29,14.29,0,0,1-14.28,14.29v-3.85a10.45,10.45,0,0,0,10.44-10.44,14.29,14.29,0,0,1,14.28-14.29v3.85a10.45,10.45,0,0,0-10.44,10.44Z"/><path class="cls-1" d="M494.14,595.28a14.29,14.29,0,0,0,14.29,14.28v-3.84A10.43,10.43,0,0,1,498,595.28,14.29,14.29,0,0,0,483.7,581v3.84a10.45,10.45,0,0,1,10.44,10.45Z"/><path class="cls-1" d="M494.14,297.64a14.29,14.29,0,0,0,14.29,14.28v-3.84A10.43,10.43,0,0,1,498,297.64a14.31,14.31,0,0,0-14.29-14.29v3.85a10.43,10.43,0,0,1,10.44,10.44Z"/><path class="cls-1" d="M547,447.88a14.31,14.31,0,0,1-20.19-.91l2.84-2.59a10.45,10.45,0,0,0,14.75.66,14.29,14.29,0,0,1,20.19.9l-2.84,2.6a10.43,10.43,0,0,0-14.75-.66Z"/><rect class="cls-2" x="531.68" y="345.32" width="27.98" height="3.84" transform="translate(-85.72 487.55) rotate(-45)"/><rect class="cls-2" x="593.35" y="482.07" width="3.84" height="27.98" transform="translate(-176.42 566.22) rotate(-45)"/><rect class="cls-2" x="295.72" y="482.07" width="3.84" height="27.98" transform="translate(-263.59 355.75) rotate(-45)"/><rect class="cls-2" x="444.53" y="432.47" width="3.84" height="27.98"/><polygon class="cls-1" points="487.53 385.6 496.06 394.13 504.6 385.6 507.31 388.32 498.78 396.85 507.31 405.38 504.6 408.1 496.06 399.57 487.53 408.1 484.81 405.38 493.35 396.85 484.81 388.32 487.53 385.6"/><polygon class="cls-1" points="388.32 584.02 396.85 592.56 405.38 584.02 408.1 586.74 399.57 595.28 408.1 603.81 405.38 606.53 396.85 597.99 388.32 606.53 385.6 603.81 394.13 595.28 385.6 586.74 388.32 584.02"/><polygon class="cls-1" points="388.32 286.39 396.85 294.92 405.38 286.39 408.1 289.11 399.57 297.64 408.1 306.17 405.38 308.89 396.85 300.36 388.32 308.89 385.6 306.17 394.13 297.64 385.6 289.11 388.32 286.39"/><polygon class="cls-1" points="333.25 543.75 345.32 543.75 345.32 531.68 349.17 531.68 349.17 543.75 361.23 543.75 361.23 547.59 349.17 547.59 349.17 559.66 345.32 559.66 345.32 547.59 333.25 547.59 333.25 543.75"/></svg>